# xmcd
#
# Track frame offsets: 
#        150
#        10495
#        13448
#        31066
#        42690
#        56761
#        77570
#        118054
#        127250
#        154245
#        172250
#
# Disc length: 2502 seconds
#
# Revision: 0
# Processed by: cddbd v1.5.2PL0 Copyright (c) Steve Scherf et al.
# Submitted via: ExactAudioCopy v0.99pb5
#
DISCID=9e09c40b
DTITLE=Michael Williams Band - King Of The Dead
DYEAR=2008
DGENRE=Blues
TTITLE0=Catfish Blues
TTITLE1=Amazing Grace
TTITLE2=If You Let Me
TTITLE3=Hurry Home
TTITLE4=Pick Up The Pace
TTITLE5=King Of The Dead
TTITLE6=Train Wreck
TTITLE7=Acoustic Blues
TTITLE8=Well Enough Alone
TTITLE9=The Apology
TTITLE10=Just Don't Forget Me
EXTD=
EXTT0=
EXTT1=
EXTT2=
EXTT3=
EXTT4=
EXTT5=
EXTT6=
EXTT7=
EXTT8=
EXTT9=
EXTT10=
PLAYORDER=
